# xmcd
#
# Track frame offsets: 
#        150
#        20311
#        41237
#        71805
#        89763
#        124535
#        141360
#        171747
#        187015
#        202512
#        217919
#        234857
#        254428
#        275503
#        305575
#        324874
#
# Disc length: 4787 seconds
#
# Revision: 1
# Processed by: cddbd v1.5.2PL0 Copyright (c) Steve Scherf et al.
# Submitted via: ExactAudioCopy v1.3
#
DISCID=eb12b110
DTITLE=Various Artist - Akella Presents - vol.58 - Various Styles Of 
DTITLE=Blues - CD2
DYEAR=2015
DGENRE=Blues
TTITLE0=Tas Cru - You Keep The Money
TTITLE1=Rob Tognoni - Dance Like This
TTITLE2=John Earl Walker Band - Welcome Back Mr. Blues
TTITLE3=Anthony Gomes - Whiskey Train
TTITLE4=Tinsley Ellis - Are You Sorry
TTITLE5=The Blues Overdrive - Woman of Love
TTITLE6=Ronnie Earl and The Broadcasters - Marje's Melody
TTITLE7=Jimmy Adler - St. Charles Line
TTITLE8=Ellis Hooks - To get close to you
TTITLE9=Barbara Blue - I'm Gonna Tear Your Playhouse Down
TTITLE10=Full Trunk - ADHD
TTITLE11=Joe Valeriano - Saint Louis Blues
TTITLE12=Buddy Flett - Wall To Wall
TTITLE13=Joey Gilmore - Bit Off More Than I Could Chew
TTITLE14=Arlen Roth and Jack Pearson - Do What's Right
TTITLE15=Otis Taylor - Hey Joe
EXTD=
EXTT0=
EXTT1=
EXTT2=
EXTT3=
EXTT4=
EXTT5=
EXTT6=
EXTT7=
EXTT8=
EXTT9=
EXTT10=
EXTT11=
EXTT12=
EXTT13=
EXTT14=
EXTT15=
PLAYORDER=
